<svg width="32" height="32" viewBox="0 0 32 32" fill="none" xmlns="http://www.w3.org/2000/svg">
<path d="M29.148 6.31168C29.7792 6.31455 30.2885 6.82854 30.2857 7.45972C30.2828 8.09089 29.7688 8.60024 29.1376 8.59737L24.5662 8.5766C23.9351 8.57373 23.4257 8.05974 23.4286 7.42856C23.4315 6.79738 23.9454 6.28804 24.5766 6.29091L29.148 6.31168Z" fill="white"/>
<path d="M27.9948 9.71429C27.9948 10.3455 27.4831 10.8571 26.852 10.8571C26.2208 10.8571 25.7091 10.3455 25.7091 9.71429V5.14286C25.7091 4.51167 26.2208 4 26.852 4C27.4831 4 27.9948 4.51167 27.9948 5.14286V9.71429Z" fill="white"/>
<path d="M16 3.42857C9.05699 3.42857 3.42857 9.05699 3.42857 16C3.42857 22.943 9.05699 28.5714 16 28.5714C22.943 28.5714 28.5714 22.943 28.5714 16C28.5714 15.3676 28.5249 14.7468 28.4351 14.1408C28.2965 13.2042 28.8055 12.2522 29.7143 11.9867C30.6231 11.7212 31.5847 12.2421 31.751 13.1742C31.9147 14.0923 32 15.0368 32 16C32 24.8366 24.8366 32 16 32C7.16344 32 0 24.8366 0 16C0 7.16344 7.16344 0 16 0C17.7876 0 19.51 0.293805 21.1197 0.837111C21.3407 0.911717 21.5596 0.991013 21.7761 1.07488C22.659 1.41677 22.9859 2.46054 22.5511 3.30159C22.1163 4.14263 21.0845 4.45953 20.1919 4.14392C20.1359 4.1241 20.0796 4.10467 20.0232 4.08562C18.7623 3.66001 17.4099 3.42857 16 3.42857Z" fill="white"/>
<path d="M13.6992 11.4512V20H12.0117V13.3965L9.98438 14.041V12.7109L13.5176 11.4512H13.6992Z" fill="white"/>
<path d="M22.3125 18.6816V20H16.4766V18.875L19.2363 15.916C19.5137 15.6074 19.7324 15.3359 19.8926 15.1016C20.0527 14.8633 20.168 14.6504 20.2383 14.4629C20.3125 14.2715 20.3496 14.0898 20.3496 13.918C20.3496 13.6602 20.3066 13.4395 20.2207 13.2559C20.1348 13.0684 20.0078 12.9238 19.8398 12.8223C19.6758 12.7207 19.4727 12.6699 19.2305 12.6699C18.9727 12.6699 18.75 12.7324 18.5625 12.8574C18.3789 12.9824 18.2383 13.1562 18.1406 13.3789C18.0469 13.6016 18 13.8535 18 14.1348H16.3066C16.3066 13.627 16.4277 13.1621 16.6699 12.7402C16.9121 12.3145 17.2539 11.9766 17.6953 11.7266C18.1367 11.4727 18.6602 11.3457 19.2656 11.3457C19.8633 11.3457 20.3672 11.4434 20.7773 11.6387C21.1914 11.8301 21.5039 12.1074 21.7148 12.4707C21.9297 12.8301 22.0371 13.2598 22.0371 13.7598C22.0371 14.041 21.9922 14.3164 21.9023 14.5859C21.8125 14.8516 21.6836 15.1172 21.5156 15.3828C21.3516 15.6445 21.1523 15.9102 20.918 16.1797C20.6836 16.4492 20.4238 16.7285 20.1387 17.0176L18.6562 18.6816H22.3125Z" fill="white"/>
</svg>
