<svg width="510" height="541" viewBox="0 0 510 541" fill="none" xmlns="http://www.w3.org/2000/svg">
<path d="M201 329C201 299.177 225.177 275 255 275V275C284.823 275 309 299.177 309 329V462C309 491.823 284.823 516 255 516V516C225.177 516 201 491.823 201 462V329Z" fill="#B9031A"/>
<path d="M201 329C201 299.177 225.177 275 255 275V275C284.823 275 309 299.177 309 329V462C309 491.823 284.823 516 255 516V516C225.177 516 201 491.823 201 462V329Z" fill="url(#paint0_linear_17_10)"/>
<path fill-rule="evenodd" clip-rule="evenodd" d="M0.5 0.5H276C404.958 0.5 509.5 105.042 509.5 234V307C509.5 435.959 404.958 540.5 276 540.5H201.08V433.5H276C345.864 433.5 402.5 376.864 402.5 307V234C402.5 164.136 345.864 107.5 276 107.5H107.5V540H0.5V0.5Z" fill="#B9031A"/>
<path d="M309 209C309 238.823 284.823 263 255 263C225.177 263 201 238.823 201 209C201 179.177 225.177 155 255 155C284.823 155 309 179.177 309 209Z" fill="#B9031A"/>
<defs>
<linearGradient id="paint0_linear_17_10" x1="356.5" y1="427" x2="222.5" y2="356.5" gradientUnits="userSpaceOnUse">
<stop offset="0.262034" stop-color="#7C1521"/>
<stop offset="0.847103" stop-color="#B9031A" stop-opacity="0"/>
</linearGradient>
</defs>
</svg>
