<svg width="510" height="541" viewBox="0 0 510 541" fill="none" xmlns="http://www.w3.org/2000/svg">
<path fill-rule="evenodd" clip-rule="evenodd" d="M0.5 0.5H276C404.957 0.5 509.5 105.042 509.5 234V307C509.5 435.959 404.957 540.5 276 540.5H201.078V464.93C201.027 463.96 201 462.983 201 462V329C201 299.177 225.176 275 255 275C284.824 275 309 299.177 309 329V429.152C362.859 414.637 402.5 365.448 402.5 307V234C402.5 164.136 345.863 107.5 276 107.5H107.5V540H0.5V0.5ZM255 263C284.824 263 309 238.823 309 209C309 179.177 284.824 155 255 155C225.176 155 201 179.177 201 209C201 238.823 225.176 263 255 263Z" fill="#252525" fill-opacity="0.3"/>
</svg>
