<svg width="78" height="20" viewBox="0 0 78 20" fill="none" xmlns="http://www.w3.org/2000/svg">
<path d="M11.0119 10L16.1388 3.88867C16.2248 3.78711 16.1525 3.63281 16.0197 3.63281H14.4611C14.3693 3.63281 14.2814 3.67383 14.2209 3.74414L9.99234 8.78516L5.76383 3.74414C5.70523 3.67383 5.61734 3.63281 5.52359 3.63281H3.965C3.83219 3.63281 3.75992 3.78711 3.84586 3.88867L8.97281 10L3.84586 16.1113C3.82661 16.134 3.81426 16.1617 3.81028 16.1911C3.80629 16.2205 3.81084 16.2505 3.82339 16.2775C3.83593 16.3044 3.85594 16.3272 3.88104 16.3431C3.90615 16.359 3.93528 16.3674 3.965 16.3672H5.52359C5.61539 16.3672 5.70328 16.3262 5.76383 16.2559L9.99234 11.2148L14.2209 16.2559C14.2795 16.3262 14.3673 16.3672 14.4611 16.3672H16.0197C16.1525 16.3672 16.2248 16.2129 16.1388 16.1113L11.0119 10Z" fill="white"/>
<path d="M27.676 14.268C28.024 14.436 28.228 14.676 28.288 15H30.1C30.1 14.292 29.836 13.764 29.32 13.404C28.804 13.056 28.06 12.804 27.088 12.648C26.152 12.504 25.456 12.168 24.988 11.628C24.508 11.088 24.28 10.44 24.28 9.672C24.28 9.168 24.364 8.784 24.532 8.52C24.7 8.256 24.928 8.124 25.216 8.124C25.432 8.124 25.6 8.196 25.72 8.34C25.84 8.484 25.9 8.664 25.9 8.88C25.9 8.964 25.888 9.072 25.876 9.216C25.852 9.36 25.852 9.48 25.852 9.552C25.852 10.104 25.984 10.572 26.272 10.956C26.548 11.34 26.92 11.64 27.376 11.832C27.832 12.036 28.336 12.132 28.864 12.132C29.416 12.132 29.932 12.024 30.388 11.808C30.844 11.592 31.204 11.28 31.468 10.872C31.732 10.476 31.864 10.008 31.864 9.48C31.864 8.928 31.732 8.448 31.492 8.04C31.24 7.632 30.892 7.32 30.46 7.104C30.028 6.888 29.524 6.768 28.972 6.768C28.516 6.768 28.108 6.852 27.724 7.008C27.34 7.164 27.064 7.38 26.884 7.656H26.86C26.68 7.368 26.428 7.152 26.116 6.996C25.804 6.852 25.42 6.768 24.988 6.768C24.508 6.768 24.064 6.9 23.668 7.14C23.272 7.392 22.96 7.728 22.732 8.148C22.504 8.58 22.396 9.048 22.396 9.552C22.396 10.404 22.564 11.076 22.924 11.556C23.272 12.048 23.752 12.456 24.364 12.78V12.816L23.488 12.888V14.172C23.8 14.076 24.208 14.028 24.712 14.028H26.356C26.884 14.028 27.328 14.112 27.676 14.268ZM29.68 10.404C29.5 10.668 29.224 10.8 28.864 10.8C28.48 10.8 28.204 10.668 28.024 10.404C27.844 10.14 27.76 9.816 27.76 9.432C27.76 9.072 27.844 8.76 28.024 8.496C28.204 8.232 28.48 8.1 28.852 8.1C29.224 8.1 29.5 8.244 29.68 8.508C29.86 8.772 29.956 9.084 29.956 9.432C29.956 9.816 29.86 10.14 29.68 10.404ZM34.0001 14.784C34.4561 15.012 34.9721 15.12 35.5481 15.12C36.1121 15.12 36.6281 15.012 37.0961 14.784C37.5641 14.568 37.9361 14.244 38.2121 13.812C38.4761 13.38 38.6201 12.876 38.6201 12.3C38.6201 11.82 38.5601 11.4 38.4401 11.016C38.3201 10.644 38.1761 10.32 38.0081 10.056C37.8401 9.792 37.6121 9.492 37.3481 9.144C37.0241 8.736 36.7841 8.376 36.6401 8.088C36.4841 7.8 36.4121 7.476 36.4121 7.092V6.912H34.5401C34.5161 7.128 34.5161 7.272 34.5161 7.368C34.5161 7.752 34.5641 8.088 34.6721 8.4C34.7681 8.712 34.9001 8.976 35.0561 9.204C35.2001 9.432 35.4041 9.708 35.6681 10.02C36.0161 10.452 36.2801 10.836 36.4601 11.172C36.6281 11.508 36.7241 11.892 36.7241 12.348C36.7241 12.804 36.6041 13.14 36.3881 13.38C36.1601 13.62 35.8841 13.728 35.5601 13.728C35.2241 13.728 34.9481 13.608 34.7201 13.356C34.4921 13.116 34.3841 12.768 34.3841 12.324C34.3841 11.892 34.4681 11.46 34.6361 11.028L32.8721 10.644C32.7401 10.884 32.6441 11.136 32.5841 11.388C32.5121 11.652 32.4881 11.964 32.4881 12.324C32.4881 12.9 32.6201 13.392 32.8961 13.812C33.1601 14.244 33.5321 14.568 34.0001 14.784ZM44.3645 9.924C43.9325 9.72 43.4765 9.612 42.9965 9.612C42.4925 9.612 42.0485 9.708 41.6645 9.876V6.912H39.7805V12.36C39.7805 12.912 39.9005 13.392 40.1405 13.8C40.3805 14.22 40.7405 14.544 41.1965 14.772C41.6525 15.012 42.1925 15.12 42.8165 15.12C43.4045 15.12 43.9325 15.012 44.3885 14.784C44.8445 14.556 45.2045 14.232 45.4685 13.812C45.7205 13.392 45.8525 12.912 45.8525 12.36C45.8525 11.772 45.7085 11.268 45.4325 10.848C45.1565 10.44 44.7965 10.128 44.3645 9.924ZM43.6565 13.428C43.4525 13.668 43.1765 13.788 42.8165 13.788C42.4325 13.788 42.1445 13.692 41.9525 13.476C41.7605 13.26 41.6645 12.924 41.6645 12.456V11.256C41.7725 11.196 41.9165 11.136 42.0965 11.088C42.2765 11.04 42.4685 11.016 42.6725 11.016C43.0325 11.016 43.3445 11.136 43.5845 11.376C43.8245 11.616 43.9565 11.952 43.9565 12.396C43.9565 12.84 43.8485 13.188 43.6565 13.428ZM51.9101 7.056C51.5981 6.888 51.2501 6.804 50.8901 6.804C50.5061 6.804 50.1821 6.876 49.9061 7.008C49.6301 7.152 49.4261 7.344 49.2941 7.608H49.2581C49.1141 7.344 48.9341 7.14 48.7181 7.008C48.4901 6.876 48.2381 6.804 47.9621 6.804C47.9141 6.804 47.7701 6.816 47.5301 6.84C47.3981 6.864 47.3141 6.864 47.2661 6.864C47.1461 6.864 47.0261 6.852 46.9061 6.804L46.4501 8.268C46.5581 8.352 46.6901 8.388 46.8581 8.388C46.9541 8.388 47.0981 8.376 47.2781 8.34C47.4461 8.316 47.5781 8.292 47.6501 8.292C47.7941 8.292 47.9141 8.352 47.9981 8.448C48.0821 8.544 48.1301 8.676 48.1301 8.832V10.212H50.0141V8.76C50.0141 8.58 50.0501 8.436 50.1461 8.316C50.2421 8.196 50.3621 8.136 50.5301 8.136C50.6981 8.136 50.8301 8.196 50.9261 8.304C51.0221 8.424 51.0701 8.568 51.0701 8.76V12.432C51.0701 12.912 50.9621 13.248 50.7461 13.452C50.5301 13.656 50.2421 13.752 49.9061 13.752C49.5221 13.752 49.2341 13.644 49.0421 13.404C48.8501 13.164 48.7661 12.864 48.7661 12.504C48.7661 12.24 48.8141 11.976 48.9101 11.724L47.1701 11.46C46.9661 11.832 46.8701 12.216 46.8701 12.6C46.8701 13.08 47.0021 13.512 47.2661 13.896C47.5301 14.28 47.8901 14.568 48.3461 14.784C48.8021 15 49.3301 15.096 49.9061 15.096C50.5061 15.096 51.0341 14.988 51.4901 14.748C51.9461 14.508 52.3061 14.184 52.5581 13.764C52.8101 13.344 52.9421 12.864 52.9421 12.312V8.796C52.9421 8.4 52.8461 8.052 52.6661 7.752C52.4741 7.452 52.2221 7.224 51.9101 7.056ZM61.406 9.888C61.022 9.672 60.578 9.564 60.098 9.564C59.714 9.564 59.366 9.648 59.03 9.816C58.694 9.984 58.466 10.2 58.346 10.464H58.286C58.166 10.188 57.986 9.972 57.722 9.804C57.458 9.648 57.182 9.564 56.894 9.564C56.366 9.564 55.934 9.744 55.586 10.08H55.526C55.658 9.672 55.886 9.348 56.222 9.132C56.546 8.916 56.906 8.76 57.314 8.688C57.722 8.616 58.202 8.556 58.754 8.532C58.862 8.532 59.018 8.52 59.234 8.52C59.522 8.52 59.762 8.52 59.954 8.508C60.146 8.496 60.362 8.46 60.602 8.412L60.698 6.792C60.302 6.84 59.786 6.876 59.162 6.888L58.502 6.912C57.014 6.972 55.898 7.416 55.142 8.232C54.374 9.06 54.002 10.176 54.002 11.592C54.002 12.288 54.074 12.924 54.218 13.524C54.362 14.124 54.53 14.616 54.734 15H56.498V14.976C56.282 14.52 56.114 14.088 56.018 13.692C55.922 13.308 55.874 12.864 55.874 12.384C55.874 11.904 55.958 11.544 56.138 11.292C56.306 11.052 56.534 10.92 56.798 10.92C57.266 10.92 57.494 11.292 57.494 12.036L57.458 13.776H59.162L59.126 12.048C59.114 11.652 59.174 11.364 59.318 11.184C59.462 11.016 59.642 10.92 59.87 10.92C60.134 10.92 60.35 11.052 60.518 11.292C60.686 11.532 60.77 11.904 60.77 12.384C60.77 12.9 60.722 13.356 60.626 13.74C60.53 14.136 60.374 14.544 60.158 14.976V15H61.922C62.402 14.112 62.642 13.188 62.642 12.228C62.642 11.7 62.522 11.232 62.306 10.824C62.09 10.416 61.79 10.104 61.406 9.888ZM64.9108 14.796C65.3668 15 65.8828 15.096 66.4588 15.096C67.0828 15.096 67.6228 15 68.0788 14.784C68.5348 14.568 68.8948 14.28 69.1348 13.92C69.3748 13.56 69.5068 13.152 69.5068 12.72C69.5068 12.276 69.3868 11.868 69.1708 11.496C68.9548 11.136 68.6308 10.884 68.2108 10.74V10.704C68.6188 10.56 68.8948 10.344 69.0628 10.056C69.2308 9.768 69.3148 9.432 69.3148 9.036C69.3148 8.58 69.1828 8.172 68.9308 7.836C68.6788 7.5 68.3428 7.248 67.9108 7.068C67.4788 6.9 66.9868 6.804 66.4588 6.804C65.9308 6.804 65.4628 6.9 65.0308 7.092C64.5988 7.284 64.2508 7.548 63.9988 7.884C63.7468 8.232 63.6268 8.628 63.6268 9.072C63.6268 9.252 63.6508 9.48 63.7228 9.744L65.5708 9.468C65.5228 9.324 65.5108 9.18 65.5108 9.024C65.5108 8.784 65.5948 8.568 65.7628 8.4C65.9308 8.232 66.1708 8.136 66.4588 8.136C66.7228 8.136 66.9508 8.22 67.1428 8.376C67.3348 8.544 67.4308 8.772 67.4308 9.072C67.4308 9.696 67.1068 9.996 66.4828 9.996H66.0268V11.388H66.4468C66.7948 11.388 67.0828 11.496 67.2988 11.712C67.5148 11.928 67.6228 12.216 67.6228 12.6C67.6228 12.96 67.5148 13.248 67.2988 13.452C67.0828 13.656 66.7948 13.752 66.4588 13.752C66.1228 13.752 65.8588 13.656 65.6428 13.464C65.4268 13.272 65.3308 13.008 65.3308 12.672C65.3308 12.48 65.3548 12.288 65.4148 12.084L63.6028 11.808C63.4828 12.084 63.4348 12.384 63.4348 12.72C63.4348 13.176 63.5668 13.584 63.8308 13.944C64.0948 14.304 64.4548 14.592 64.9108 14.796ZM71.9337 14.784C72.3897 15.012 72.9057 15.12 73.4817 15.12C74.0457 15.12 74.5617 15.012 75.0297 14.784C75.4977 14.568 75.8697 14.244 76.1457 13.812C76.4097 13.38 76.5537 12.876 76.5537 12.3C76.5537 11.82 76.4937 11.4 76.3737 11.016C76.2537 10.644 76.1097 10.32 75.9417 10.056C75.7737 9.792 75.5457 9.492 75.2817 9.144C74.9577 8.736 74.7177 8.376 74.5737 8.088C74.4177 7.8 74.3457 7.476 74.3457 7.092V6.912H72.4737C72.4497 7.128 72.4497 7.272 72.4497 7.368C72.4497 7.752 72.4977 8.088 72.6057 8.4C72.7017 8.712 72.8337 8.976 72.9897 9.204C73.1337 9.432 73.3377 9.708 73.6017 10.02C73.9497 10.452 74.2137 10.836 74.3937 11.172C74.5617 11.508 74.6577 11.892 74.6577 12.348C74.6577 12.804 74.5377 13.14 74.3217 13.38C74.0937 13.62 73.8177 13.728 73.4937 13.728C73.1577 13.728 72.8817 13.608 72.6537 13.356C72.4257 13.116 72.3177 12.768 72.3177 12.324C72.3177 11.892 72.4017 11.46 72.5697 11.028L70.8057 10.644C70.6737 10.884 70.5777 11.136 70.5177 11.388C70.4457 11.652 70.4217 11.964 70.4217 12.324C70.4217 12.9 70.5537 13.392 70.8297 13.812C71.0937 14.244 71.4657 14.568 71.9337 14.784Z" fill="white"/>
</svg>
