<svg width="1977" height="1981" viewBox="0 0 1977 1981" fill="none" xmlns="http://www.w3.org/2000/svg">
<path d="M891.888 1148.31C954.268 1083.63 1059.17 1083.73 1126.19 1148.54C1193.21 1213.35 1196.97 1318.33 1134.59 1383.02L856.399 1671.5C794.019 1736.18 689.117 1736.08 622.097 1671.27C555.077 1606.46 551.316 1501.48 613.696 1436.79L891.888 1148.31Z" fill="#2C2C2C"/>
<path d="M891.888 1148.31C954.268 1083.63 1059.17 1083.73 1126.19 1148.54C1193.21 1213.35 1196.97 1318.33 1134.59 1383.02L856.399 1671.5C794.019 1736.18 689.117 1736.08 622.097 1671.27C555.077 1606.46 551.316 1501.48 613.696 1436.79L891.888 1148.31Z" fill="#2C2C2C"/>
<path fill-rule="evenodd" clip-rule="evenodd" d="M1128.5 0L1747.62 598.71C2037.42 878.958 2053.69 1332.9 1783.95 1612.61L1631.26 1770.95C1361.52 2050.66 907.92 2050.22 618.119 1769.97L449.754 1607.16L673.563 1375.08L841.927 1537.89C998.93 1689.72 1244.67 1689.95 1390.8 1538.42L1543.49 1380.08C1689.63 1228.54 1680.81 982.62 1523.81 830.794L1145.15 464.614L240.502 1402.71L0.0458984 1170.18L1128.5 0Z" fill="#2C2C2C"/>
<path d="M1385.66 1122.66C1323.28 1187.35 1218.38 1187.25 1151.36 1122.44C1084.34 1057.63 1080.58 952.644 1142.96 887.958C1205.34 823.272 1310.24 823.372 1377.26 888.183C1444.28 952.994 1448.04 1057.97 1385.66 1122.66Z" fill="#2C2C2C"/>
</svg>
