<svg width="1049" height="355" viewBox="0 0 1049 355" fill="none" xmlns="http://www.w3.org/2000/svg">
<path d="M473.357 150.921C506.427 116.676 562.04 116.729 597.57 151.04C633.1 185.351 635.094 240.928 602.024 275.174L454.543 427.895C421.473 462.14 365.86 462.087 330.33 427.776C294.8 393.465 292.806 337.887 325.876 303.642L473.357 150.921Z" fill="#505050" fill-opacity="0.08"/>
<path d="M473.357 150.921C506.427 116.676 562.04 116.729 597.57 151.04C633.1 185.351 635.094 240.928 602.024 275.174L454.543 427.895C421.473 462.14 365.86 462.087 330.33 427.776C294.8 393.465 292.806 337.887 325.876 303.642L473.357 150.921Z" fill="#505050" fill-opacity="0.08"/>
<path fill-rule="evenodd" clip-rule="evenodd" d="M598.796 -457L927.016 -140.041C1080.65 8.32297 1089.27 248.64 946.276 396.72L865.327 480.545C722.327 628.626 481.856 628.394 328.221 480.03L238.964 393.835L357.614 270.969L446.871 357.164C530.104 437.541 660.381 437.666 737.852 357.443L818.8 273.618C896.271 193.395 891.599 63.2021 808.366 -17.1754L607.621 -211.032L128.031 285.599L0.554805 162.497L598.796 -457Z" fill="#505050" fill-opacity="0.08"/>
<path d="M735.129 137.34C702.058 171.585 646.445 171.532 610.915 137.221C575.385 102.91 573.391 47.3327 606.461 13.0875C639.532 -21.1576 695.145 -21.1043 730.675 13.2067C766.205 47.5176 768.199 103.095 735.129 137.34Z" fill="#505050" fill-opacity="0.08"/>
</svg>
