<svg width="1472" height="718" viewBox="0 0 1472 718" fill="none" xmlns="http://www.w3.org/2000/svg">
<path d="M891.888 649.619C954.268 584.933 1059.17 585.034 1126.19 649.844C1193.21 714.655 1196.97 819.636 1134.59 884.322L856.399 1172.8C794.019 1237.49 689.117 1237.39 622.097 1172.58C555.077 1107.76 551.316 1002.78 613.696 938.098L891.888 649.619Z" fill="#505050" fill-opacity="0.11"/>
<path d="M891.888 649.619C954.268 584.933 1059.17 585.034 1126.19 649.844C1193.21 714.655 1196.97 819.636 1134.59 884.322L856.399 1172.8C794.019 1237.49 689.117 1237.39 622.097 1172.58C555.077 1107.76 551.316 1002.78 613.696 938.098L891.888 649.619Z" fill="#505050" fill-opacity="0.11"/>
<path fill-rule="evenodd" clip-rule="evenodd" d="M1128.5 -498.695L1747.62 100.014C2037.42 380.263 2053.69 834.203 1783.95 1113.91L1631.26 1272.25C1361.52 1551.97 907.92 1551.53 618.119 1271.28L449.754 1108.46L673.563 876.381L841.927 1039.2C998.93 1191.02 1244.67 1191.26 1390.8 1039.72L1543.49 881.385C1689.63 729.849 1680.81 483.925 1523.81 332.098L1145.15 -34.0817L240.502 904.014L0.0459771 671.485L1128.5 -498.695Z" fill="#505050" fill-opacity="0.11"/>
<path d="M1385.66 623.966C1323.28 688.652 1218.38 688.551 1151.36 623.741C1084.34 558.93 1080.58 453.949 1142.96 389.263C1205.34 324.576 1310.24 324.677 1377.26 389.488C1444.28 454.298 1448.04 559.279 1385.66 623.966Z" fill="#505050" fill-opacity="0.11"/>
</svg>
