<svg width="27" height="20" viewBox="0 0 27 20" fill="none" xmlns="http://www.w3.org/2000/svg">
<path d="M6.168 10.145L7.825 15.081H4.528L6.168 10.145ZM6.743 6.812H4.909L0 20H2.889L3.795 17.282H8.559L9.474 20H12.363L9.913 13.453C8.9232 12.6695 8.12352 11.6722 7.57384 10.5358C7.02417 9.39941 6.73877 8.15336 6.739 6.891C6.739 6.864 6.743 6.838 6.743 6.812ZM18.201 6.711C18.201 6.62613 18.1673 6.54474 18.1073 6.48473C18.0473 6.42471 17.9659 6.391 17.881 6.391H12.129C12.0869 6.39087 12.0453 6.39906 12.0064 6.41509C11.9675 6.43112 11.9322 6.45469 11.9024 6.48443C11.8727 6.51417 11.8491 6.5495 11.8331 6.58839C11.8171 6.62727 11.8089 6.66894 11.809 6.711V7.35C11.809 7.526 11.951 7.67 12.129 7.67H17.881C17.9659 7.67 18.0473 7.63629 18.1073 7.57627C18.1673 7.51626 18.201 7.43487 18.201 7.35V6.711ZM19.945 13.766L24.9 18.721C25.0204 18.84 25.1828 18.9067 25.352 18.9067C25.5212 18.9067 25.6836 18.84 25.804 18.721L26.697 17.827C26.7564 17.7677 26.8035 17.6972 26.8356 17.6196C26.8678 17.5421 26.8843 17.459 26.8843 17.375C26.8843 17.291 26.8678 17.2079 26.8356 17.1304C26.8035 17.0528 26.7564 16.9823 26.697 16.923L21.743 11.969L19.945 13.766ZM15.005 7.12167e-08C14.0817 0.000131393 13.1674 0.182124 12.3144 0.535586C11.4614 0.889048 10.6864 1.40706 10.0336 2.06004C8.71525 3.3788 7.97473 5.16726 7.975 7.032C7.97527 8.89674 8.71628 10.685 10.035 12.0034C11.3538 13.3218 13.1423 14.0623 15.007 14.062C16.8717 14.0617 18.66 13.3207 19.9784 12.002C21.2968 10.6832 22.0373 8.89474 22.037 7.03C22.0367 5.16526 21.2957 3.37701 19.977 2.05863C18.6582 0.740245 16.8697 -0.000265145 15.005 7.12167e-08ZM15.005 1.279C18.177 1.279 20.757 3.859 20.757 7.031C20.757 10.203 18.177 12.783 15.005 12.783C11.833 12.783 9.253 10.203 9.253 7.031C9.253 3.859 11.834 1.279 15.005 1.279Z" fill="#ABB0B5"/>
</svg>
