<svg width="15" height="15" viewBox="0 0 15 15" fill="none" xmlns="http://www.w3.org/2000/svg">
<path fill-rule="evenodd" clip-rule="evenodd" d="M3.92495 1.61146C3.11804 1.71993 2.63616 1.92562 2.28089 2.28089C1.92564 2.63614 1.71993 3.11816 1.61146 3.92519C1.50106 4.74656 1.5 5.82654 1.5 7.33333C1.5 8.84047 1.50106 9.92044 1.61146 10.7417C1.71993 11.5486 1.92562 12.0305 2.28089 12.3858C2.63614 12.741 3.11816 12.9467 3.92519 13.0552C4.74656 13.1656 5.82654 13.1667 7.33333 13.1667C8.84047 13.1667 9.92044 13.1656 10.7417 13.0552C11.5486 12.9467 12.0305 12.7411 12.3858 12.3858C12.741 12.0305 12.9467 11.5485 13.0552 10.7415C13.1656 9.92011 13.1667 8.84013 13.1667 7.33333C13.1667 5.8262 13.1656 4.74622 13.0552 3.92495C12.9467 3.11804 12.7411 2.63616 12.3858 2.28089C12.0305 1.92564 11.5485 1.71993 10.7415 1.61146C9.92011 1.50106 8.84013 1.5 7.33333 1.5C5.8262 1.5 4.74622 1.50106 3.92495 1.61146ZM7.29522 0.5H7.37143C8.8318 0.499991 9.979 0.499984 10.8747 0.620373C11.7925 0.743735 12.5208 1.0017 13.0929 1.57378C13.6649 2.14584 13.9229 2.87396 14.0463 3.79172C14.1667 4.68733 14.1667 5.83453 14.1667 7.29522V7.37144C14.1667 8.83181 14.1667 9.979 14.0463 10.8747C13.9229 11.7925 13.665 12.5208 13.0929 13.0929C12.5208 13.6649 11.7927 13.9229 10.8749 14.0463C9.97933 14.1667 8.83214 14.1667 7.37145 14.1667H7.29523C5.83486 14.1667 4.68767 14.1667 3.79198 14.0463C2.87417 13.9229 2.14586 13.665 1.57378 13.0929C1.00172 12.5208 0.743742 11.7927 0.620374 10.8749C0.499984 9.97933 0.499991 8.83214 0.5 7.37145V7.29524C0.499991 5.83486 0.499984 4.68767 0.620373 3.79198C0.743735 2.87417 1.0017 2.14586 1.57378 1.57378C2.14584 1.00172 2.87396 0.743742 3.79172 0.620374C4.68733 0.499984 5.83453 0.499991 7.29522 0.5Z" fill="#999999"/>
<path fill-rule="evenodd" clip-rule="evenodd" d="M7.33867 3.5C7.61481 3.5 7.83867 3.72386 7.83867 4V5.92445C8.04762 5.99833 8.23962 6.1183 8.39933 6.27801C8.68063 6.55931 8.83867 6.94084 8.83867 7.33867C8.83867 7.5655 8.78729 7.78704 8.69098 7.98772L9.6968 8.99302C9.89211 9.18824 9.89219 9.50482 9.69698 9.70013C9.50177 9.89544 9.18518 9.89552 8.98987 9.70031L7.98251 8.69346C7.78321 8.78817 7.56354 8.83867 7.33867 8.83867C6.94084 8.83867 6.55931 8.68063 6.27801 8.39933C5.9967 8.11802 5.83867 7.73649 5.83867 7.33867C5.83867 6.94084 5.9967 6.55931 6.27801 6.27801C6.43771 6.1183 6.62972 5.99833 6.83867 5.92445V4C6.83867 3.72386 7.06253 3.5 7.33867 3.5ZM7.33867 6.83867C7.20606 6.83867 7.07888 6.89135 6.98511 6.98511C6.89135 7.07888 6.83867 7.20606 6.83867 7.33867C6.83867 7.47128 6.89135 7.59845 6.98511 7.69222C7.07888 7.78599 7.20606 7.83867 7.33867 7.83867C7.47127 7.83867 7.59845 7.78599 7.69222 7.69222C7.78599 7.59845 7.83867 7.47127 7.83867 7.33867C7.83867 7.20606 7.78599 7.07888 7.69222 6.98511C7.59845 6.89135 7.47128 6.83867 7.33867 6.83867Z" fill="#999999"/>
</svg>
