<svg width="15" height="15" viewBox="0 0 15 15" fill="none" xmlns="http://www.w3.org/2000/svg">
<path fill-rule="evenodd" clip-rule="evenodd" d="M5.52489 1.86872L4.70657 2.05797C4.09904 2.19799 3.68024 2.29504 3.36059 2.40458C3.052 2.51033 2.87771 2.61459 2.74642 2.7461C2.61473 2.878 2.51036 3.05271 2.40453 3.36123C2.29492 3.68076 2.19778 4.09911 2.05781 4.70645C2.05781 4.70645 2.05781 4.70645 2.05781 4.70645L1.86914 5.52512C1.70302 6.24395 1.58673 6.7496 1.5326 7.1589C1.47986 7.55762 1.49204 7.82747 1.56249 8.07284C1.63267 8.31809 1.76537 8.55362 2.02137 8.86382C2.28418 9.18225 2.65045 9.54925 3.17213 10.0713C3.17217 10.0713 3.17209 10.0712 3.17213 10.0713L4.39213 11.2913C5.29842 12.1976 5.94345 12.8409 6.49791 13.2639C7.04086 13.678 7.43784 13.8335 7.84125 13.8335C8.24501 13.8335 8.64198 13.678 9.18488 13.2638C9.73935 12.8408 10.3844 12.1973 11.291 11.2906C12.1974 10.3843 12.8407 9.73944 13.2636 9.18506C13.6778 8.64224 13.8332 8.24527 13.8332 7.8415C13.8332 7.43805 13.6779 7.04124 13.2638 6.49844C12.8409 5.94409 12.1974 5.29907 11.2904 4.39245L10.0704 3.17239C9.54865 2.65067 9.18175 2.28436 8.86338 2.02146C8.55334 1.76544 8.31817 1.63263 8.07279 1.56214C7.82734 1.49195 7.55755 1.47994 7.15891 1.53268C6.74961 1.58683 6.24395 1.70297 5.52489 1.86872ZM7.02775 0.541317C7.50582 0.478072 7.92498 0.479709 8.34813 0.600791C8.77135 0.722314 9.12824 0.943298 9.50011 1.25037C9.85864 1.54643 10.2578 1.94562 10.7562 2.44397L12.0196 3.70745C12.8962 4.58365 13.5896 5.27677 14.0589 5.89189C14.5409 6.52376 14.8332 7.13161 14.8332 7.8415C14.8332 8.55173 14.5407 9.15975 14.0587 9.79161C13.5902 10.4057 12.8985 11.0974 12.0247 11.9711L11.9715 12.0244C11.0974 12.8984 10.4056 13.5903 9.79145 14.0588C9.15951 14.541 8.55149 14.8335 7.84125 14.8335C7.13132 14.8335 6.52329 14.541 5.89142 14.059C5.27658 13.59 4.58389 12.8973 3.70873 12.0221L2.44168 10.755C1.94426 10.2573 1.54571 9.8585 1.25012 9.50035C0.943194 9.12846 0.72246 8.77196 0.601285 8.34866C0.479787 7.92542 0.477976 7.50599 0.54123 7.02777C0.602406 6.56526 0.729999 6.01315 0.889377 5.32351L1.08852 4.45946C1.22151 3.88239 1.3299 3.41205 1.45863 3.03677C1.5928 2.64562 1.76176 2.317 2.03874 2.03957C2.31611 1.76174 2.64515 1.59267 3.0364 1.45859C3.40998 1.33056 3.87791 1.22273 4.45111 1.09064L5.32967 0.887498C6.0167 0.729118 6.56684 0.602294 7.02775 0.541317ZM5.99343 4.99668C5.66799 4.67125 5.14036 4.67125 4.81492 4.99668C4.48948 5.32212 4.48948 5.84976 4.81492 6.17519C5.14036 6.50063 5.66799 6.50063 5.99343 6.17519C6.31887 5.84976 6.31887 5.32212 5.99343 4.99668ZM4.10781 4.28958C4.82377 3.57362 5.98458 3.57361 6.70054 4.28958C7.4165 5.00554 7.4165 6.16634 6.70054 6.8823C5.98458 7.59826 4.82377 7.59826 4.10781 6.8823C3.39185 6.16634 3.39185 5.00554 4.10781 4.28958ZM12.3675 6.99017C12.5628 7.18542 12.5628 7.502 12.3676 7.69728L7.71491 12.3506C7.51966 12.5459 7.20308 12.5459 7.0078 12.3507C6.81253 12.1554 6.8125 11.8388 7.00775 11.6436L11.6604 6.99022C11.8557 6.79495 12.1722 6.79493 12.3675 6.99017Z" fill="#999999"/>
</svg>
