<svg width="16" height="14" viewBox="0 0 16 14" fill="none" xmlns="http://www.w3.org/2000/svg">
<path d="M8 0.867188C10.2296 0.867188 12.2104 1.87279 13.6208 3.11759C14.3288 3.74239 14.912 4.44399 15.3232 5.14239C15.7272 5.82799 16 6.57119 16 7.26719C16 7.96319 15.728 8.70639 15.3232 9.39199C14.912 10.0904 14.3288 10.792 13.6208 11.4168C12.2104 12.6616 10.2288 13.6672 8 13.6672C5.7704 13.6672 3.7896 12.6616 2.3792 11.4168C1.6712 10.792 1.088 10.0904 0.6768 9.39199C0.272 8.70639 0 7.96319 0 7.26719C0 6.57119 0.272 5.82799 0.6768 5.14239C1.088 4.44399 1.6712 3.74239 2.3792 3.11759C3.7896 1.87279 5.7712 0.867188 8 0.867188ZM8 2.46719C6.2528 2.46719 4.6336 3.26159 3.4384 4.31679C2.8432 4.84159 2.3728 5.41519 2.0552 5.95439C1.7304 6.50639 1.6 6.96319 1.6 7.26719C1.6 7.57119 1.7304 8.02799 2.0552 8.57999C2.3728 9.11919 2.8432 9.69199 3.4384 10.2176C4.6336 11.2728 6.2528 12.0672 8 12.0672C9.7472 12.0672 11.3664 11.2728 12.5616 10.2176C13.1568 9.69199 13.6272 9.11919 13.9448 8.57999C14.2696 8.02799 14.4 7.57119 14.4 7.26719C14.4 6.96319 14.2696 6.50639 13.9448 5.95439C13.6272 5.41519 13.1568 4.84239 12.5616 4.31679C11.3664 3.26159 9.7472 2.46719 8 2.46719ZM8 4.86719C8.0704 4.86719 8.14 4.87012 8.2088 4.87599C8.03511 5.18067 7.96634 5.53398 8.01307 5.88157C8.0598 6.22916 8.21944 6.55176 8.46743 6.79976C8.71542 7.04775 9.03803 7.20739 9.38562 7.25412C9.7332 7.30085 10.0865 7.23208 10.3912 7.05839C10.4333 7.54012 10.3288 8.02333 10.0916 8.4447C9.85433 8.86606 9.49533 9.20593 9.06161 9.41977C8.62789 9.63361 8.13969 9.71145 7.66098 9.64308C7.18227 9.57471 6.73537 9.36333 6.37886 9.03663C6.02234 8.70993 5.77282 8.28315 5.66301 7.81222C5.55319 7.34128 5.58819 6.84816 5.76343 6.39746C5.93867 5.94676 6.24597 5.55951 6.64507 5.28645C7.04416 5.01338 7.51643 4.86725 8 4.86719Z" fill="#848080"/>
</svg>
