<svg width="32" height="20" viewBox="0 0 32 20" fill="none" xmlns="http://www.w3.org/2000/svg">
<path d="M11.484 12.7834H6.645L9.051 5.53944L11.484 12.7834ZM12.149 3.98844L10.899 0.648438H7.204L0 20.0004H4.24L5.569 16.0134H12.56L13.903 20.0004H18.143L16.003 14.2844C14.6747 13.5669 13.5651 12.5034 12.7919 11.2067C12.0187 9.90993 11.6107 8.4282 11.611 6.91844C11.611 5.88644 11.807 4.90144 12.149 3.98844Z" fill="#ABB0B5"/>
<path d="M23.2668 6.69749C23.2665 6.61297 23.2328 6.53199 23.173 6.47222C23.1133 6.41245 23.0323 6.37876 22.9478 6.37849H20.7158V4.14649C20.7158 4.06189 20.6822 3.98075 20.6223 3.92093C20.5625 3.8611 20.4814 3.82749 20.3968 3.82749H19.7588C19.6742 3.82749 19.593 3.8611 19.5332 3.92093C19.4734 3.98075 19.4398 4.06189 19.4398 4.14649V6.37849H17.2078C17.1658 6.37836 17.1243 6.38652 17.0855 6.40251C17.0468 6.41849 17.0116 6.44198 16.9819 6.47163C16.9523 6.50128 16.9288 6.5365 16.9128 6.57526C16.8968 6.61402 16.8886 6.65557 16.8888 6.69749V7.33549C16.8888 7.51149 17.0308 7.65349 17.2078 7.65349H19.4398V9.88649C19.4398 10.0625 19.5828 10.2045 19.7588 10.2045H20.3968C20.4386 10.2046 20.4801 10.1965 20.5188 10.1806C20.5575 10.1647 20.5926 10.1413 20.6223 10.1117C20.6519 10.0822 20.6754 10.0471 20.6915 10.0084C20.7075 9.96977 20.7158 9.92834 20.7158 9.88649V7.65349H22.9478C22.9896 7.65363 23.0311 7.6455 23.0698 7.62958C23.1085 7.61365 23.1436 7.59025 23.1733 7.56071C23.2029 7.53117 23.2264 7.49607 23.2425 7.45742C23.2585 7.41877 23.2668 7.37734 23.2668 7.33549V6.69749ZM25.0068 13.7375L29.9518 18.6825C30.0717 18.8016 30.2338 18.8684 30.4028 18.8684C30.5718 18.8684 30.7339 18.8016 30.8538 18.6825L31.7448 17.7905C31.8643 17.6709 31.9315 17.5086 31.9315 17.3395C31.9315 17.1704 31.8643 17.0081 31.7448 16.8885L26.8008 11.9445L25.0068 13.7375ZM20.0778 0.00049407C19.1494 -0.0105232 18.2281 0.162817 17.3673 0.510468C16.5064 0.85812 15.7231 1.37317 15.0628 2.02576C14.4025 2.67836 13.8782 3.45553 13.5204 4.31222C13.1626 5.16891 12.9784 6.0881 12.9785 7.0165C12.9786 7.9449 13.1629 8.86406 13.5208 9.7207C13.8787 10.5773 14.4031 11.3544 15.0635 12.0069C15.7239 12.6594 16.5073 13.1744 17.3682 13.5219C18.2291 13.8694 19.1504 14.0426 20.0788 14.0315C21.9249 14.0093 23.6879 13.2604 24.9855 11.947C26.283 10.6336 27.0106 8.86175 27.0105 7.0155C27.0104 5.16925 26.2825 3.39746 24.9848 2.08429C23.687 0.771112 21.9239 0.0224035 20.0778 0.00049407ZM20.0778 1.27649C23.2428 1.27649 25.8178 3.85149 25.8178 7.01649C25.8178 10.1815 23.2428 12.7565 20.0778 12.7565C16.9128 12.7565 14.3378 10.1815 14.3378 7.01649C14.3378 3.85149 16.9128 1.27649 20.0778 1.27649Z" fill="#ABB0B5"/>
</svg>
