<svg width="18" height="18" viewBox="0 0 18 18" fill="none" xmlns="http://www.w3.org/2000/svg">
<path d="M9.0073 7.41114C8.67229 7.41114 8.351 7.54422 8.11411 7.78111C7.87722 8.018 7.74414 8.33929 7.74414 8.6743C7.74414 9.00931 7.87722 9.33059 8.11411 9.56748C8.351 9.80437 8.67229 9.93745 9.0073 9.93745C9.34231 9.93745 9.6636 9.80437 9.90049 9.56748C10.1374 9.33059 10.2705 9.00931 10.2705 8.6743C10.2705 8.33929 10.1374 8.018 9.90049 7.78111C9.6636 7.54422 9.34231 7.41114 9.0073 7.41114ZM9.0073 7.41114V4.45703M11.5395 11.2107L9.89825 9.57029M1 8.66797C1 4.89702 1 3.01071 2.17137 1.83934C3.34274 0.667969 5.22821 0.667969 9 0.667969C12.7709 0.667969 14.6573 0.667969 15.8286 1.83934C17 3.01071 17 4.89618 17 8.66797C17 12.4389 17 14.3252 15.8286 15.4966C14.6573 16.668 12.7718 16.668 9 16.668C5.22905 16.668 3.34274 16.668 2.17137 15.4966C1 14.3252 1 12.4398 1 8.66797Z" stroke="#848080" stroke-linecap="round" stroke-linejoin="round"/>
</svg>
